<svg version="1.2" xmlns="http://www.w3.org/2000/svg" viewBox="0 0 96 96" width="96" height="96">
	<title>Logo-SynNova-Favicon</title>
	<style>
		.s0 { fill: #085263 } 
		.s1 { fill: #ffffff } 
	</style>
	<g id="Camada 1">
		<g id="&lt;Group&gt;">
			<g id="&lt;Group&gt;">
				<path id="&lt;Path&gt;" class="s0" d="m68.7 54.6c0.6-6.6-5.9-13.6-13.3-16.3-1.2-0.5-1.8-1.9-1.4-3.2l13.5-29.7-38.1 23.6c-3.8 2.5-6.3 6.8-6.3 11.6 0 5.8 2.9 13 13.5 15.4 1.2 0.6 1.8 2 1.4 3.2l-13.6 31.4 36.7-24q0.1 0 0.1 0c4-2.5 7-7 7.5-12z"/>
				<path id="&lt;Path&gt;" class="s1" d="m59 44.5l-18.1 24.1 5.2-21.8c0-0.1-0.1-0.1-0.2-0.1l-11.4 1.6 16.1-22-4.4 20c0 0.1 0.1 0.2 0.2 0.2z"/>
				<path id="&lt;Path&gt;" class="s0" d="m28.5 76.6c-8.7-6.1-14.4-16.2-14.4-27.7 0-18.7 15.2-33.9 33.9-33.9q0.1 0 0.1 0l3.8-2.7q-1.9-0.2-3.9-0.2c-20.3 0-36.8 16.5-36.8 36.8 0 12.6 6.4 23.8 16.1 30.4z"/>
				<path id="&lt;Path&gt;" class="s0" d="m65.7 16.7l-1.1 2.6c10.3 5.8 17.3 16.9 17.3 29.6 0 18.7-15.2 33.9-33.9 33.9q-3.6 0-6.9-0.7l-2.9 2.3c3.2 0.8 6.4 1.3 9.8 1.3 20.3 0 36.8-16.5 36.8-36.8 0-13.9-7.7-26-19.1-32.2z"/>
			</g>
		</g>
	</g>
</svg>