<svg version="1.2" xmlns="http://www.w3.org/2000/svg" viewBox="0 0 1200 630" width="1200" height="630">
	<title>Logo-SynNova-TelaLogin</title>
	<style>
		.s0 { fill: #085263 } 
		.s1 { fill: #ffffff } 
	</style>
	<g id="Camada 1">
		<g id="&lt;Group&gt;">
			<g id="&lt;Group&gt;">
				<g id="&lt;Group&gt;">
					<path id="&lt;Path&gt;" class="s0" d="m313.8 346.5c2.9-31.5-28.1-64.8-63.2-77.7-6-2.2-8.8-9.1-6.8-15.2l64.3-141.6-181.7 112.4h0.1c-18.1 11.8-30.1 32.2-30.1 55.5 0 27.4 13.9 61.8 64.3 73.3 5.8 2.9 8.9 9.3 6.8 15.4l-64.8 149.4 175.3-114.4q0 0 0 0c19.1-11.6 33.7-33.3 35.8-57.1z"/>
					<path id="&lt;Path&gt;" class="s1" d="m267.7 298.3l-86.2 114.9 24.5-103.8c0.1-0.4-0.3-0.8-0.7-0.8l-54.3 7.7 76.5-104.7-20.6 95.5c-0.1 0.5 0.2 0.9 0.7 0.8z"/>
					<path id="&lt;Path&gt;" class="s0" d="m122.3 451.5c-41.5-29.3-68.7-77.6-68.7-132.2 0-89.3 72.4-161.7 161.7-161.7q0.3 0 0.7 0l17.9-12.6q-9.2-1-18.6-1c-96.8 0-175.3 78.5-175.3 175.3 0 60.3 30.4 113.4 76.8 145z"/>
					<path id="&lt;Path&gt;" class="s0" d="m299.9 165.7l-5.4 12.6c49.2 27.7 82.4 80.5 82.4 141 0 89.3-72.3 161.6-161.6 161.6-11.3 0-22.4-1.1-33.1-3.4l-13.4 10.8c14.8 4.1 30.4 6.3 46.5 6.3 96.8 0 175.3-78.5 175.3-175.3 0-66.1-36.6-123.7-90.7-153.6z"/>
				</g>
			</g>
			<g id="&lt;Group&gt;">
				<path id="SUA PARCEIRA EM SOLUÇÕES DE TECN" class="s0" aria-label="SUA PARCEIRA EM SOLUÇÕES DE TECNOLOGIA"  d="m427.6 430.2c5.5 0 8.1-2.7 8.1-5.9 0-7.7-12.7-4.5-12.7-9.7 0-1.8 1.5-3.3 5.1-3.3 1.9 0 3.9 0.6 5.8 1.7l1-2.4c-1.8-1.2-4.3-1.8-6.8-1.8-5.5 0-8 2.7-8 6 0 7.8 12.7 4.5 12.7 9.6 0 1.9-1.6 3.3-5.2 3.3-2.7 0-5.4-1-6.9-2.4l-1.1 2.3c1.6 1.6 4.8 2.6 8 2.6zm21.2 0c5.6 0 8.9-3.2 8.9-9.3v-11.9h-2.9v11.8c0 4.7-2.2 6.8-6 6.8-3.7 0-5.9-2.1-5.9-6.8v-11.8h-3v11.9c0 6.1 3.4 9.3 8.9 9.3zm30.3-0.2h3.1l-9.5-21h-3l-9.5 21h3.1l2.3-5.2h11.2zm-12.5-7.7l4.6-10.3 4.5 10.3zm35-13.3h-8.2v21h3v-6.4h5.2c5.4 0 8.7-2.8 8.7-7.3 0-4.6-3.3-7.3-8.7-7.3zm-0.1 12h-5.1v-9.4h5.1c3.8 0 5.8 1.7 5.8 4.7 0 3-2 4.7-5.8 4.7zm27.9 9h3.1l-9.5-21h-3l-9.5 21h3.1l2.3-5.3h11.2zm-12.5-7.6l4.6-10.3 4.5 10.3zm36 7.6l-5-7c3-1.1 4.6-3.4 4.6-6.7 0-4.5-3.3-7.3-8.7-7.3h-8.2v21h3v-6.4h5.2c0.4 0 0.9 0 1.3 0l4.5 6.4zm-9.2-8.9h-5.1v-9.5h5.1c3.9 0 5.9 1.7 5.9 4.7 0 3-2 4.8-5.9 4.8zm23.1 9.1c3.3 0 6.1-1.1 8-3.3l-1.9-1.8c-1.6 1.7-3.6 2.5-5.9 2.5-4.8 0-8.3-3.5-8.3-8.1 0-4.6 3.5-8.1 8.3-8.1 2.3 0 4.3 0.8 5.9 2.5l1.9-1.9c-1.9-2.1-4.7-3.2-8-3.2-6.3 0-11.1 4.5-11.1 10.7 0 6.2 4.8 10.7 11.1 10.7zm15.3-2.8v-6.8h10.5v-2.5h-10.5v-6.5h11.8v-2.6h-14.8v21h15.3v-2.6zm17.1 2.6h3v-21h-3zm26.6 0l-5-7c2.9-1.1 4.6-3.4 4.6-6.7 0-4.5-3.3-7.3-8.8-7.3h-8.1v21h3v-6.4h5.1c0.5 0 0.9 0 1.4 0l4.5 6.4zm-9.2-8.9h-5.1v-9.5h5.1c3.8 0 5.8 1.7 5.8 4.7 0 3-2 4.8-5.8 4.8zm29.4 8.9h3.1l-9.5-21h-3l-9.5 21h3.1l2.3-5.2h11.2zm-12.4-7.7l4.5-10.3 4.5 10.3zm29.8 5v-6.7h10.5v-2.6h-10.5v-6.4h11.8v-2.6h-14.8v21h15.2v-2.7zm39.5 2.7l-0.1-21h-2.4l-8.7 14.7-8.7-14.7h-2.5v21h2.9v-15.3l7.6 12.7h1.4l7.6-12.7v15.3zm20.5 0.2c5.5 0 8.1-2.8 8.1-6 0-7.7-12.7-4.5-12.7-9.6 0-1.8 1.5-3.3 5.1-3.3 1.8 0 3.9 0.5 5.7 1.7l1-2.4c-1.7-1.2-4.3-1.9-6.7-1.9-5.5 0-8.1 2.8-8.1 6 0 7.8 12.8 4.6 12.8 9.7 0 1.8-1.6 3.2-5.2 3.2-2.7 0-5.4-1-7-2.4l-1.1 2.4c1.7 1.5 4.9 2.6 8.1 2.6zm22 0c6.4 0 11.1-4.6 11.1-10.7 0-6.2-4.7-10.8-11.1-10.8-6.5 0-11.2 4.6-11.2 10.8 0 6.1 4.7 10.7 11.2 10.7zm0-2.7c-4.7 0-8.2-3.4-8.2-8 0-4.7 3.5-8.1 8.2-8.1 4.6 0 8.1 3.4 8.1 8.1 0 4.6-3.5 8-8.1 8zm15.7 2.5h14.4v-2.7h-11.4v-18.3h-3zm26.1 0.2c5.6 0 8.9-3.2 8.9-9.3v-11.9h-2.9v11.8c0 4.6-2.1 6.7-5.9 6.7-3.8 0-5.9-2.1-5.9-6.7v-11.8h-3v11.9c0 6.1 3.3 9.3 8.8 9.3zm24.6-2.7c-4.7 0-8.2-3.4-8.2-8 0-4.7 3.5-8.1 8.2-8.1 2.3 0 4.3 0.8 5.9 2.5l2-1.9c-1.9-2.2-4.8-3.3-8-3.3-6.4 0-11.1 4.5-11.1 10.8 0 5.7 4 10 9.7 10.6l-0.7 2.6h0.8c1.2 0 1.7 0.5 1.7 1.1 0 0.8-0.5 1.3-1.7 1.3-0.7 0-1.4-0.2-2-0.6l-0.6 1.5c0.7 0.5 1.6 0.7 2.6 0.7 2.3 0 3.8-1.1 3.8-2.8 0-1.3-0.9-2.3-2.7-2.4l0.4-1.3c3.2-0.1 5.9-1.2 7.8-3.3l-2-1.9c-1.6 1.7-3.6 2.5-5.9 2.5zm23.3-20.3c1.7 0 2.9-1.5 2.9-3.6h-1.6c0 1.1-0.6 1.8-1.5 1.8-1.1 0-2.1-2.1-4-2.1-1.7 0-2.9 1.5-2.9 3.7h1.6c0-1.2 0.6-1.9 1.5-1.9 1.1 0 2.1 2.1 4 2.1zm-2.1 23c6.4 0 11.1-4.6 11.1-10.7 0-6.2-4.7-10.8-11.1-10.8-6.5 0-11.2 4.6-11.2 10.8 0 6.1 4.7 10.7 11.2 10.7zm0-2.7c-4.7 0-8.2-3.4-8.2-8 0-4.7 3.5-8.1 8.2-8.1 4.6 0 8.1 3.4 8.1 8.1 0 4.6-3.5 8-8.1 8zm18.7-0.2v-6.7h10.5v-2.6h-10.5v-6.4h11.8v-2.6h-14.8v21h15.3v-2.7zm23.2 2.9c5.5 0 8.1-2.8 8.1-6 0-7.7-12.7-4.5-12.7-9.6 0-1.8 1.5-3.3 5.1-3.3 1.8 0 3.9 0.5 5.7 1.7l1-2.4c-1.7-1.2-4.3-1.9-6.7-1.9-5.5 0-8.1 2.8-8.1 6 0 7.8 12.8 4.6 12.8 9.7 0 1.8-1.6 3.2-5.2 3.2-2.7 0-5.4-1-7-2.4l-1.1 2.4c1.7 1.5 4.9 2.6 8.1 2.6zm20.6-0.2h8.8c6.8 0 11.3-4.3 11.3-10.5 0-6.3-4.5-10.5-11.3-10.5h-8.8zm3-2.7v-15.7h5.6c5.2 0 8.5 3.1 8.5 7.9 0 4.7-3.3 7.8-8.5 7.8zm24.8 0v-6.7h10.5v-2.6h-10.5v-6.4h11.8v-2.6h-14.8v21h15.2v-2.7zm29.4 2.7h3v-18.4h7.2v-2.6h-17.4v2.6h7.2zm16.4-2.6v-6.8h10.6v-2.6h-10.6v-6.4h11.8v-2.6h-14.8v21h15.3v-2.6zm26.4 2.8c3.2 0 6.1-1.1 8-3.3l-2-1.9c-1.6 1.7-3.6 2.5-5.9 2.5-4.7 0-8.2-3.4-8.2-8 0-4.7 3.5-8.1 8.2-8.1 2.3 0 4.3 0.8 5.9 2.5l2-1.9c-1.9-2.2-4.8-3.3-8-3.3-6.4 0-11.1 4.6-11.1 10.8 0 6.2 4.7 10.7 11.1 10.7zm27.3-21.2v15.6l-12.6-15.6h-2.4v21h3v-15.7l12.6 15.7h2.4v-21zm18.8 21.2c6.4 0 11.1-4.6 11.1-10.7 0-6.2-4.7-10.8-11.1-10.8-6.4 0-11.2 4.6-11.2 10.8 0 6.1 4.8 10.7 11.2 10.7zm0-2.7c-4.7 0-8.2-3.4-8.2-8 0-4.7 3.5-8.1 8.2-8.1 4.7 0 8.1 3.4 8.1 8.1 0 4.6-3.4 8-8.1 8zm15.7 2.5h14.4v-2.6h-11.4v-18.4h-3zm26.9 0.2c6.4 0 11.2-4.6 11.2-10.7 0-6.2-4.8-10.8-11.2-10.8-6.4 0-11.2 4.6-11.2 10.8 0 6.1 4.8 10.7 11.2 10.7zm0-2.7c-4.7 0-8.2-3.4-8.2-8 0-4.7 3.5-8.1 8.2-8.1 4.7 0 8.2 3.4 8.2 8.1 0 4.6-3.5 8-8.2 8zm30.3-1.3c-1.5 0.9-3.1 1.3-4.9 1.3-4.8 0-8.4-3.4-8.4-8 0-4.7 3.6-8.1 8.4-8.1 2.4 0 4.4 0.7 6.1 2.4l1.9-1.8c-2-2.2-4.8-3.3-8.1-3.3-6.5 0-11.3 4.6-11.3 10.8 0 6.2 4.8 10.7 11.2 10.7 3 0 5.9-0.9 8-2.7v-8.2h-2.9zm8.6 3.8h3v-21h-3zm25 0h3.2l-9.6-21h-3l-9.5 21h3.1l2.3-5.2h11.2zm-12.4-7.7l4.5-10.3 4.5 10.3z"/>
				<path id="SynNova" class="s0" aria-label="SynNova"  d="m465.5 367.4c31.8 0 46.6-15.9 46.6-34.3 0-44.2-72.9-25.8-72.9-55.2 0-10.5 8.7-19.1 29.2-19.1 10.7 0 22.5 3.1 33 9.8l5.7-13.7c-10-6.9-24.6-10.7-38.7-10.7-31.6 0-46.1 15.8-46.1 34.4 0 44.7 72.9 26.2 72.9 55.6 0 10.5-8.9 18.6-29.7 18.6-15.5 0-30.8-5.9-39.8-14l-6.3 13.4c9.6 9 27.7 15.2 46.1 15.2zm132.1-92.6l-31.5 73-31.8-73h-17.2l40.2 91-2.9 6.4c-4.5 10.5-9.4 14.1-17.4 14.1-6.1 0-11.8-2.4-16.3-6.7l-7.1 12.4c5.7 5.5 14.7 8.4 23.4 8.4 14 0 24.5-6 32.6-25.3l44.2-100.3zm80.3-0.8c-14.4 0-26.1 5.3-32.8 14.6v-13.8h-15.9v91.2h16.5v-47c0-19.7 11.4-30.2 28.9-30.2 15.7 0 24.6 8.7 24.6 26.6v50.6h16.6v-52.5c0-26.8-15.7-39.5-37.9-39.5zm157.2-28.4v89.8l-72.2-89.8h-14.1v120.4h17.2v-89.8l72.2 89.8h14.1v-120.4zm90 121.4c27.4 0 47.3-19.4 47.3-46.6 0-27.2-19.9-46.4-47.3-46.4-27.3 0-47.5 19.2-47.5 46.4 0 27.2 20.2 46.6 47.5 46.6zm0-14.4c-17.5 0-30.8-12.7-30.8-32.2 0-19.4 13.3-32 30.8-32 17.6 0 30.6 12.6 30.6 32 0 19.5-13 32.2-30.6 32.2zm132.1-77.8l-32 73.1-31.3-73.1h-17.2l39.9 91.2h16.9l39.9-91.2zm61.9-0.8c-14.6 0-28.2 4.1-37.6 11.7l6.8 12.3c7.1-6 18.1-9.8 28.9-9.8 16.4 0 24.5 8.1 24.5 22.1v3.2h-26.2c-27.2 0-36.6 12.1-36.6 26.7 0 15.8 13.1 26.8 33.7 26.8 14.3 0 24.4-4.8 29.9-13v12h15.7v-55c0-25-14.1-37-39.1-37zm-3.7 80.3c-12.6 0-20.2-5.7-20.2-14.8 0-7.7 4.7-14.1 21-14.1h25.5v12.7c-4.2 10.5-14 16.2-26.3 16.2z"/>
			</g>
		</g>
	</g>
</svg>