<?xml version="1.0" encoding="UTF-8" standalone="no"?>
<!DOCTYPE svg PUBLIC "-//W3C//DTD SVG 1.1//EN" "http://www.w3.org/Graphics/SVG/1.1/DTD/svg11.dtd">
<svg xmlns="http://www.w3.org/2000/svg" version="1.1" viewBox="0 0 1461 232">
<path fill="#008dd0" d="M 66.27,24.97 Q 61.58,20.03 57.08,14.96 A 1.25,1.25 47.5 0 1 57.15,13.22 L 70.57,0.56 A 0.99,0.99 -42.0 0 1 71.97,0.60 L 111.57,42.47 A 1.23,1.20 -58.2 0 1 111.84,43.69 L 95.06,96.60 A 1.71,1.70 -89.6 0 1 93.92,97.73 L 42.21,113.09 A 1.40,1.38 -29.7 0 1 40.81,112.72 L 1.14,70.79 A 1.14,1.12 46.8 0 1 1.18,69.19 L 14.58,56.55 A 1.17,1.15 46.6 0 1 16.23,56.61 L 47.31,89.44 A 0.85,0.83 59.5 0 0 48.16,89.67 L 77.72,80.83 A 0.94,0.93 -89.3 0 0 78.35,80.21 L 88.08,49.41 A 2.30,2.24 32.2 0 0 87.53,47.14 Q 77.05,36.31 66.27,24.97 Z"/>
<path fill="#008dd0" d="M 146.54,13.80 Q 152.57,7.57 158.45,1.79 A 1.38,1.36 -45.1 0 1 160.36,1.77 L 173.56,14.67 A 0.90,0.88 -45.5 0 1 173.56,15.93 L 142.43,47.99 A 1.94,1.87 -32.7 0 0 141.97,49.93 L 151.77,78.60 A 0.95,0.92 -1.6 0 0 152.42,79.20 L 184.27,87.88 A 0.85,0.84 -60.2 0 0 185.10,87.65 L 216.31,55.54 A 1.81,1.78 -45.4 0 1 218.87,55.50 L 231.60,68.22 A 1.10,1.10 -45.2 0 1 231.60,69.77 L 191.73,110.65 A 1.47,1.46 29.5 0 1 190.29,111.04 L 136.84,96.57 A 2.09,2.09 88.1 0 1 135.41,95.23 L 118.02,44.05 A 0.99,0.99 -32.9 0 1 118.24,43.04 Q 132.89,27.89 146.54,13.80 Z"/>
<path fill="#008dd0" d="M 358.30,15.78 Q 358.78,87.84 358.32,159.00 Q 358.26,167.92 358.36,179.00 Q 358.51,194.80 358.44,210.46 A 0.48,0.48 -0.1 0 1 357.96,210.94 Q 345.17,210.90 334.76,204.92 Q 326.66,200.26 320.08,191.58 Q 310.56,179.01 307.88,162.82 Q 306.48,154.34 306.51,145.75 Q 306.75,80.75 306.75,15.75 A 0.50,0.50 -45.0 0 1 307.25,15.25 L 357.83,15.31 A 0.47,0.47 -0.1 0 1 358.30,15.78 Z"/>
<path fill="#008dd0" d="M 541.56,171.56 Q 540.33,178.36 537.69,183.19 Q 524.36,207.65 498.23,210.63 Q 494.98,211.00 478.24,211.00 Q 427.82,211.00 376.87,211.00 A 0.87,0.87 -45.0 0 1 376.00,210.13 L 376.00,161.52 A 0.77,0.77 0.4 0 1 376.78,160.75 Q 425.35,160.93 472.79,160.54 Q 478.07,160.49 480.99,159.16 Q 486.88,156.47 489.75,150.25 Q 492.49,144.31 492.49,137.25 Q 492.50,77.12 492.50,16.00 A 0.69,0.68 90.0 0 1 493.18,15.31 L 542.24,15.31 A 0.76,0.76 -90.0 0 1 543.00,16.07 Q 543.00,82.02 543.00,147.13 Q 543.00,159.26 542.99,159.37 Q 542.74,165.09 541.56,171.56 Z"/>
<path fill="#008dd0" d="M 586.32,122.44 Q 567.18,105.38 565.53,79.50 Q 563.68,50.36 582.49,30.78 Q 589.80,23.17 597.52,19.63 Q 606.00,15.74 616.22,15.40 A 0.76,0.76 -0.7 0 1 617.00,16.16 L 617.00,133.07 A 0.96,0.96 0.9 0 1 616.01,134.03 Q 598.63,133.40 586.32,122.44 Z"/>
<rect fill="#008dd0" x="634.51" y="15.25" width="148.24" height="51.74" rx="0.57"/>
<rect fill="#008dd0" x="814.75" y="15.25" width="51.50" height="195.74" rx="0.26"/>
<path fill="#008dd0" d="M 909.07,25.52 Q 923.27,15.02 941.07,15.43 A 0.52,0.51 90.0 0 1 941.57,15.94 L 941.75,210.26 A 0.68,0.67 -90.0 0 1 941.08,210.94 L 890.76,211.00 A 0.70,0.70 -0.3 0 1 890.06,210.30 Q 890.36,142.33 890.27,74.24 Q 890.25,59.52 891.27,54.32 Q 894.41,38.43 907.11,27.11 Q 908.06,26.26 909.07,25.52 Z"/>
<rect fill="#008dd0" x="959.50" y="15.25" width="134.74" height="51.74" rx="0.27"/>
<rect fill="#008dd0" x="1120.76" y="15.26" width="51.74" height="195.74" rx="0.57"/>
<path fill="#008dd0" d="M 1283.95,95.04 A 0.52,0.52 -44.9 0 1 1283.19,95.04 L 1209.56,16.12 Q 1208.81,15.31 1209.91,15.31 L 1278.34,15.25 A 2.03,2.00 68.2 0 1 1279.81,15.89 L 1318.13,56.80 A 1.00,1.00 -0.0 0 1 1318.13,58.16 L 1283.95,95.04 Z"/>
<path fill="#008dd0" d="M 1447.52,15.81 L 1269.21,210.34 A 2.06,2.03 -68.4 0 1 1267.71,211.00 L 1200.12,211.00 Q 1198.71,211.00 1199.67,209.97 L 1380.45,15.90 A 2.06,2.06 -68.4 0 1 1381.95,15.25 L 1447.28,15.25 Q 1448.04,15.25 1447.52,15.81 Z"/>
<rect fill="#008dd0" x="959.50" y="92.24" width="123.50" height="41.76" rx="0.26"/>
<path fill="#008dd0" d="M 634.76,133.41 L 634.51,93.01 A 0.77,0.76 -0.0 0 1 635.28,92.25 Q 683.39,92.25 730.50,92.25 Q 744.52,92.25 750.38,93.75 Q 761.41,96.58 770.32,104.43 Q 782.71,115.34 788.00,131.00 Q 793.17,146.29 790.18,162.80 Q 788.34,172.93 783.64,181.61 Q 777.24,193.41 766.81,201.06 Q 753.59,210.77 737.58,210.93 A 0.83,0.82 -0.0 0 1 736.74,210.10 Q 736.91,182.25 736.57,155.72 Q 736.49,149.08 735.09,145.49 Q 731.67,136.72 722.84,134.63 Q 720.21,134.00 707.61,134.00 Q 671.44,134.00 635.36,134.00 A 0.60,0.59 -0.0 0 1 634.76,133.41 Z"/>
<path fill="#95c6eb" d="M 207.45,132.55 Q 220.99,145.63 233.76,158.50 A 1.27,1.24 45.0 0 1 233.78,160.26 L 220.43,173.69 A 0.45,0.42 44.6 0 1 219.81,173.68 L 187.04,141.91 A 0.82,0.80 57.7 0 0 186.21,141.71 L 156.88,151.64 A 1.08,1.04 88.8 0 0 156.21,152.37 L 147.60,183.87 A 1.24,1.21 30.2 0 0 147.93,185.07 L 180.23,216.61 A 1.16,1.15 44.3 0 1 180.26,218.24 L 167.41,231.47 A 0.93,0.93 -45.7 0 1 166.10,231.49 L 124.75,191.37 A 1.20,1.19 -60.6 0 1 124.43,190.19 L 139.03,136.77 A 2.16,2.14 -2.0 0 1 140.41,135.31 L 190.59,118.14 A 2.39,2.39 -32.5 0 1 193.02,118.68 Q 200.58,125.92 207.45,132.55 Z"/>
<path fill="#008dd0" d="M 1375.13,119.21 A 0.51,0.51 44.7 0 1 1375.88,119.21 L 1460.20,210.07 Q 1461.06,211.00 1459.79,211.00 L 1391.51,211.00 A 2.86,2.86 68.6 0 1 1389.41,210.08 L 1341.19,157.84 A 0.99,0.99 44.8 0 1 1341.18,156.50 L 1375.13,119.21 Z"/>
<path fill="#008dd0" d="M 4.01,166.11 Q 3.12,165.35 2.47,164.36 A 0.96,0.96 50.3 0 1 2.58,163.17 L 42.89,121.86 A 0.88,0.88 -60.0 0 1 43.74,121.63 L 97.56,136.36 A 1.91,1.90 88.5 0 1 98.86,137.60 L 116.14,188.68 A 1.18,1.16 57.8 0 1 115.88,189.87 L 75.74,230.89 A 1.56,1.53 -45.1 0 1 73.55,230.91 L 60.80,218.18 A 1.15,1.13 -45.4 0 1 60.80,216.58 L 92.18,184.42 A 1.24,1.23 -32.5 0 0 92.47,183.15 L 82.60,154.29 A 0.98,0.94 87.2 0 0 81.95,153.67 L 50.18,144.98 A 1.15,1.11 -59.8 0 0 49.08,145.29 L 17.88,177.25 A 1.58,1.56 -46.6 0 1 15.69,177.32 Q 10.59,172.61 5.74,167.64 Q 5.54,167.43 4.01,166.11 Z"/>
<rect fill="#008dd0" x="565.26" y="160.74" width="153.74" height="50.26" rx="0.29"/>
</svg>
