<?xml version="1.0" encoding="UTF-8" standalone="no"?>
<!DOCTYPE svg PUBLIC "-//W3C//DTD SVG 1.1//EN" "http://www.w3.org/Graphics/SVG/1.1/DTD/svg11.dtd">
<svg xmlns="http://www.w3.org/2000/svg" version="1.1" viewBox="0 0 1773 673">
<path fill="#292929" d="M 769.70,346.04 Q 753.97,331.62 741.43,314.36 Q 715.96,279.31 703.75,236.25 Q 698.11,216.35 695.15,197.90 Q 693.40,186.93 692.45,178.08 Q 690.21,157.16 692.25,136.50 Q 695.57,102.78 715.30,76.12 Q 720.57,69.00 728.48,61.10 Q 787.63,2.10 874.50,1.00 Q 908.29,0.57 939.05,7.58 Q 949.16,9.89 958.30,12.96 Q 998.98,26.62 1030.82,55.93 Q 1042.53,66.71 1051.81,79.65 Q 1078.88,117.41 1077.25,165.00 Q 1076.26,193.89 1071.60,219.27 Q 1065.36,253.29 1050.34,284.42 Q 1032.04,322.35 1000.69,350.44 Q 979.16,369.74 954.30,383.11 Q 952.75,383.94 951.01,384.25 Q 948.44,384.70 948.22,382.23 Q 947.55,374.76 948.24,367.35 Q 948.63,363.04 950.39,352.68 Q 954.00,331.42 960.94,310.19 Q 964.85,298.21 970.48,287.99 Q 982.72,265.77 994.25,247.50 Q 999.72,238.83 1007.48,228.97 Q 1015.36,218.97 1021.17,207.73 Q 1025.89,198.63 1028.66,189.22 Q 1040.54,148.90 1020.30,110.70 Q 1009.97,91.20 993.64,76.36 Q 976.13,60.46 954.53,50.77 Q 928.35,39.04 899.99,36.58 Q 890.26,35.73 880.01,35.84 Q 834.41,36.34 794.81,59.06 Q 776.34,69.66 761.96,86.21 Q 741.49,109.77 737.02,140.05 Q 735.55,150.02 736.11,160.00 Q 737.35,182.19 747.44,202.56 Q 751.74,211.25 756.88,218.84 Q 762.30,226.84 762.34,226.89 Q 774.86,246.07 798.19,280.06 Q 812.68,301.18 819.66,326.78 Q 821.78,334.56 824.18,346.27 Q 827.01,360.04 828.25,373.00 Q 828.48,375.37 827.56,378.45 Q 826.07,383.50 820.81,382.44 Q 819.39,382.15 817.07,380.72 Q 814.38,379.05 814.26,378.98 Q 790.24,364.87 769.70,346.04 Z"/>
<path fill="#008dd0" d="M 36.31,492.56 Q 36.21,545.61 36.25,598.65 Q 36.25,600.75 35.22,602.58 Q 18.39,632.32 1.52,662.13 Q 0.75,663.50 0.75,661.92 L 0.75,461.17 A 0.61,0.61 89.2 0 1 1.36,460.56 Q 365.09,460.45 729.12,460.50 Q 732.09,460.50 734.69,459.47 Q 743.50,455.98 751.66,451.15 Q 754.96,449.19 757.45,446.39 Q 760.33,443.14 760.86,439.93 Q 761.32,437.13 760.22,434.43 Q 759.36,432.34 757.08,430.09 Q 751.61,424.72 743.56,421.44 Q 739.52,419.79 733.27,415.72 Q 729.11,413.01 727.47,408.74 Q 726.02,404.95 726.93,400.16 Q 727.93,394.90 731.24,390.83 Q 734.28,387.10 739.34,385.14 Q 748.89,381.44 758.35,385.26 Q 762.81,387.07 766.77,390.98 Q 770.50,394.68 773.25,399.00 Q 778.37,407.07 783.54,416.98 Q 794.59,438.15 816.33,448.08 Q 829.30,454.00 842.65,448.83 Q 851.57,445.37 853.69,436.44 Q 854.67,432.30 854.57,426.98 Q 854.50,423.12 854.50,423.00 Q 854.51,395.63 854.75,368.25 Q 854.86,355.21 853.63,337.74 Q 851.85,312.46 843.68,288.69 Q 840.63,279.80 835.87,270.30 Q 815.51,229.65 781.81,194.44 Q 774.41,186.71 769.04,175.86 Q 764.30,166.30 762.37,157.07 Q 757.10,131.93 771.44,109.44 Q 777.60,99.76 787.09,91.86 Q 804.70,77.18 827.75,69.75 Q 842.11,65.12 853.25,63.02 Q 913.62,51.67 966.81,83.69 Q 983.04,93.45 993.86,106.94 Q 1000.55,115.26 1004.04,124.05 Q 1012.53,145.44 1003.94,167.94 Q 998.85,181.27 988.99,193.35 Q 986.19,196.77 986.17,196.80 Q 971.79,214.86 959.94,231.94 Q 950.46,245.59 942.12,261.59 Q 923.50,297.26 922.11,337.39 Q 921.77,346.93 921.77,347.11 Q 921.44,354.62 921.50,358.50 Q 921.85,380.26 923.75,424.00 Q 923.98,429.35 924.65,431.66 Q 926.54,438.25 932.75,439.50 Q 937.61,440.48 941.81,436.81 Q 945.89,433.26 959.09,419.84 Q 968.13,410.65 978.52,403.15 Q 988.31,396.08 995.99,393.66 Q 1007.35,390.09 1020.50,391.75 Q 1040.27,394.24 1038.79,414.50 Q 1038.40,419.90 1035.07,423.40 Q 1033.21,425.35 1027.21,428.00 Q 1021.84,430.37 1016.61,433.03 Q 1011.94,435.41 1011.90,435.44 Q 1009.43,437.09 1008.63,439.86 Q 1007.83,442.61 1009.20,446.54 Q 1010.42,450.07 1012.31,452.69 Q 1014.88,456.25 1019.69,455.94 Q 1021.20,455.84 1025.51,453.58 Q 1036.94,447.59 1049.31,448.34 Q 1056.65,448.79 1064.80,452.22 Q 1072.20,455.34 1078.92,460.01 A 3.10,3.06 -27.3 0 0 1080.68,460.56 L 1771.06,460.50 A 1.44,1.44 0.2 0 1 1772.50,461.94 L 1772.50,662.27 Q 1772.50,663.65 1771.82,662.45 L 1737.58,602.03 Q 1737.00,601.00 1737.00,599.82 L 1737.00,492.56 A 0.56,0.56 90.0 0 0 1736.44,492.00 L 36.80,492.06 A 0.50,0.49 -90.0 0 0 36.31,492.56 Z"/>
<path fill="#282828" d="M 829.05,520.69 A 0.32,0.31 -77.3 0 1 829.33,521.14 L 759.00,671.30 A 1.22,1.20 -77.1 0 1 757.91,672.00 L 715.45,672.00 A 0.57,0.56 12.8 0 1 714.94,671.19 L 786.69,521.01 A 1.34,1.33 -76.8 0 1 787.91,520.25 L 829.05,520.69 Z"/>
<path fill="#282828" d="M 1274.96,598.18 Q 1275.63,584.53 1275.07,570.87 Q 1274.92,567.43 1273.91,565.43 Q 1272.54,562.74 1270.19,561.06 Q 1264.90,557.29 1257.75,557.29 Q 1211.12,557.25 1164.94,557.25 A 0.94,0.94 -45.0 0 1 1164.00,556.31 L 1164.00,520.77 A 0.71,0.70 90.0 0 1 1164.70,520.06 Q 1217.19,519.96 1270.02,519.99 Q 1281.15,520.00 1286.33,521.46 Q 1298.59,524.90 1306.56,535.44 Q 1310.54,540.70 1312.32,547.16 Q 1313.47,551.34 1313.65,559.95 Q 1314.28,589.37 1313.50,602.25 Q 1312.68,615.75 1301.81,625.56 Q 1293.04,633.48 1281.14,636.45 Q 1274.99,637.98 1261.72,638.08 Q 1214.10,638.42 1165.26,638.24 A 1.20,1.20 -0.0 0 1 1164.06,637.04 L 1164.00,599.42 A 0.68,0.67 -0.0 0 1 1164.68,598.75 L 1274.43,598.69 A 0.53,0.53 -88.9 0 0 1274.96,598.18 Z"/>
<path fill="#282828" d="M 367.77,663.77 Q 367.86,667.40 367.45,671.24 A 0.58,0.57 -86.6 0 1 366.88,671.75 L 329.03,671.69 A 1.02,1.01 0.3 0 1 328.01,670.67 L 328.19,520.94 A 0.51,0.49 90.0 0 1 328.68,520.43 Q 344.72,520.31 355.01,532.48 Q 363.40,542.40 366.18,554.60 Q 367.47,560.26 367.61,574.50 Q 368.00,615.68 367.60,656.85 Q 367.60,656.94 367.77,663.77 Z"/>
<path fill="#282828" d="M 1149.08,520.69 A 0.36,0.35 -0.0 0 1 1149.44,521.04 L 1149.50,671.32 A 0.68,0.68 -0.0 0 1 1148.82,672.00 L 1110.79,672.00 A 1.05,1.04 89.7 0 1 1109.75,670.96 Q 1109.58,621.66 1109.93,572.96 Q 1110.02,560.35 1111.36,554.64 Q 1113.52,545.39 1118.79,537.52 Q 1124.30,529.29 1131.38,525.21 Q 1139.28,520.66 1149.08,520.69 Z"/>
<path fill="#282828" d="M 74.40,532.90 Q 84.70,521.03 100.56,520.94 A 0.51,0.49 0.0 0 1 101.07,521.43 L 101.19,671.19 A 0.50,0.50 -45.0 0 1 100.69,671.69 L 62.34,671.69 A 0.60,0.59 -90.0 0 1 61.75,671.09 Q 61.75,622.38 61.75,574.50 Q 61.75,562.24 63.65,554.03 Q 66.41,542.12 74.40,532.90 Z"/>
<path fill="#282828" d="M 396.46,533.21 Q 406.91,520.64 423.50,520.75 A 0.25,0.25 45.0 0 1 423.75,521.00 L 423.75,671.34 A 0.66,0.66 -0.1 0 1 423.09,672.00 L 385.09,672.00 A 0.90,0.89 0.3 0 1 384.19,671.10 Q 384.30,618.34 384.45,566.50 Q 384.50,547.59 396.46,533.21 Z"/>
<path fill="#282828" d="M 154.33,617.17 Q 134.59,598.14 114.92,579.04 A 1.31,1.24 22.5 0 1 114.54,578.19 L 112.75,521.50 Q 112.72,520.64 113.35,521.24 L 219.17,621.76 A 0.81,0.80 43.3 0 0 220.31,621.73 L 312.82,522.31 Q 313.45,521.62 313.43,522.56 L 312.01,578.48 A 2.08,2.03 -23.5 0 1 311.47,579.81 L 227.95,670.96 A 1.70,1.49 -65.6 0 1 226.76,671.50 L 211.33,671.19 A 2.77,2.40 64.6 0 1 209.59,670.43 Q 181.44,643.31 154.33,617.17 Z"/>
<rect fill="#282828" x="438.75" y="521.00" width="103.00" height="39.50" rx="0.48"/>
<rect fill="#282828" x="560.74" y="521.00" width="157.76" height="39.50" rx="0.43"/>
<path fill="#282828" d="M 837.28,612.72 L 821.95,570.10 A 2.03,1.98 47.9 0 1 822.01,568.56 L 844.14,521.43 Q 844.55,520.56 844.89,521.46 L 901.77,671.06 A 0.56,0.56 79.5 0 1 901.25,671.82 L 859.36,671.75 A 0.93,0.91 -9.9 0 1 858.49,671.15 L 849.49,646.27 A 1.17,1.16 79.9 0 0 848.40,645.50 L 787.37,645.50 A 0.49,0.49 12.3 0 1 786.92,644.81 L 801.10,613.52 A 0.79,0.76 11.5 0 1 801.81,613.07 L 836.93,613.19 A 0.37,0.35 -9.5 0 0 837.28,612.72 Z"/>
<path fill="#282828" d="M 1411.81,521.48 Q 1414.53,521.55 1417.17,521.50 A 0.26,0.25 11.5 0 1 1417.41,521.86 L 1346.95,672.11 A 1.12,1.11 12.5 0 1 1345.94,672.75 L 1303.59,672.75 A 0.60,0.59 12.8 0 1 1303.05,671.90 L 1374.95,521.42 A 0.63,0.61 -77.1 0 1 1375.51,521.06 Q 1393.56,521.01 1411.81,521.48 Z"/>
<path fill="#282828" d="M 1520.54,532.77 Q 1530.46,521.41 1546.20,520.99 A 0.78,0.78 -0.7 0 1 1547.00,521.77 L 1546.94,671.30 A 0.71,0.70 0.0 0 1 1546.23,672.00 L 1508.27,672.00 A 0.71,0.70 -0.0 0 1 1507.56,671.30 Q 1507.45,619.47 1507.63,567.25 Q 1507.70,547.48 1520.54,532.77 Z"/>
<path fill="#282828" d="M 935.28,662.47 Q 922.05,649.84 920.25,631.00 Q 919.62,624.44 919.63,620.50 Q 919.75,571.50 919.75,522.16 A 0.66,0.66 -45.0 0 1 920.41,521.50 L 958.38,521.50 A 0.87,0.87 -45.0 0 1 959.25,522.37 L 959.25,671.20 A 0.56,0.56 0.5 0 1 958.68,671.76 Q 944.75,671.51 935.28,662.47 Z"/>
<path fill="#282828" d="M 1654.69,558.94 Q 1608.72,558.70 1561.57,558.75 A 0.82,0.82 -90.0 0 1 1560.75,557.93 L 1560.75,522.06 A 0.56,0.56 45.0 0 1 1561.31,521.50 Q 1616.50,521.50 1671.50,521.54 Q 1689.54,521.55 1701.06,534.44 Q 1707.95,542.14 1709.71,552.02 Q 1710.23,554.94 1710.26,571.02 Q 1710.28,585.26 1710.37,599.50 Q 1710.44,608.69 1706.17,617.48 A 0.65,0.65 -49.7 0 0 1706.22,618.11 Q 1709.70,623.25 1711.34,629.12 Q 1712.49,633.21 1712.63,641.01 Q 1712.89,655.57 1712.74,670.97 A 1.04,1.04 -89.7 0 1 1711.70,672.00 L 1674.95,671.94 A 0.71,0.70 -90.0 0 1 1674.25,671.23 Q 1674.25,662.13 1674.22,653.50 Q 1674.20,645.30 1667.19,641.56 Q 1663.66,639.68 1659.25,639.69 Q 1610.25,639.75 1561.25,639.75 A 0.50,0.50 45.0 0 1 1560.75,639.25 L 1560.81,600.81 A 0.51,0.50 -0.0 0 1 1561.32,600.31 L 1671.30,600.25 A 0.52,0.52 0.0 0 0 1671.82,599.73 Q 1671.72,589.10 1671.74,578.83 Q 1671.75,570.87 1671.63,570.19 Q 1670.79,565.50 1666.69,562.56 Q 1661.68,558.98 1654.69,558.94 Z"/>
<path fill="#282828" d="M 1425.27,613.47 L 1409.92,570.79 A 2.18,2.15 47.9 0 1 1409.99,569.13 L 1432.19,521.92 Q 1432.49,521.29 1432.74,521.94 L 1489.73,671.87 A 0.44,0.44 -11.3 0 1 1489.33,672.47 Q 1474.28,672.94 1460.32,672.62 Q 1454.78,672.49 1448.43,672.79 A 2.30,2.27 78.5 0 1 1446.18,671.28 L 1437.38,646.93 A 1.05,1.04 -10.0 0 0 1436.40,646.25 L 1375.38,646.31 A 0.57,0.57 12.1 0 1 1374.86,645.51 L 1388.85,614.73 A 1.27,1.24 11.9 0 1 1390.00,614.00 L 1424.94,613.94 A 0.35,0.35 -9.9 0 0 1425.27,613.47 Z"/>
<rect fill="#282828" x="619.50" y="574.00" width="39.50" height="98.74" rx="0.69"/>
<rect fill="#282828" x="438.50" y="579.75" width="94.50" height="32.00" rx="0.27"/>
<rect fill="#282828" x="438.75" y="632.00" width="103.00" height="39.50" rx="0.43"/>
<rect fill="#282828" x="974.75" y="633.75" width="117.50" height="38.50" rx="0.51"/>
</svg>
